<mxfile host="app.diagrams.net" modified="2021-07-01T21:57:33.759Z" agent="5.0 (Windows NT 10.0; Win64; x64) AppleWebKit/537.36 (KHTML, like Gecko) Chrome/91.0.4472.124 Safari/537.36" etag="d3RDK5NZpTmkmHnTMJJu" version="14.8.3" type="github">
  <diagram id="5dkFe8cBWcFfrQ_JdaL1" name="Page-1">
    <mxGraphModel dx="2372" dy="2939" grid="0" gridSize="10" guides="1" tooltips="1" connect="1" arrows="1" fold="1" page="1" pageScale="1" pageWidth="1169" pageHeight="827" math="0" shadow="0">
      <root>
        <mxCell id="0" />
        <mxCell id="1" parent="0" />
        <mxCell id="MiHCtyASBFwHcQ-_76FD-1" value="" style="rounded=1;whiteSpace=wrap;html=1;fillColor=none;" parent="1" vertex="1">
          <mxGeometry x="592" y="-1233" width="542" height="366" as="geometry" />
        </mxCell>
        <mxCell id="MiHCtyASBFwHcQ-_76FD-2" value="&lt;h1&gt;MartketPlace&lt;/h1&gt;&lt;p&gt;Join Project SNG CL and CR&lt;/p&gt;" style="text;html=1;strokeColor=none;fillColor=none;spacing=5;spacingTop=-20;whiteSpace=wrap;overflow=hidden;rounded=0;" parent="1" vertex="1">
          <mxGeometry x="25" y="-1633" width="190" height="120" as="geometry" />
        </mxCell>
        <mxCell id="MiHCtyASBFwHcQ-_76FD-3" value="Frontend" style="text;html=1;strokeColor=none;fillColor=none;align=center;verticalAlign=middle;whiteSpace=wrap;rounded=0;" parent="1" vertex="1">
          <mxGeometry x="582" y="-1292" width="282" height="48" as="geometry" />
        </mxCell>
        <mxCell id="MiHCtyASBFwHcQ-_76FD-13" style="edgeStyle=orthogonalEdgeStyle;rounded=0;orthogonalLoop=1;jettySize=auto;html=1;exitX=0;exitY=0.25;exitDx=0;exitDy=0;entryX=1;entryY=0.5;entryDx=0;entryDy=0;" parent="1" source="MiHCtyASBFwHcQ-_76FD-4" target="MiHCtyASBFwHcQ-_76FD-11" edge="1">
          <mxGeometry relative="1" as="geometry" />
        </mxCell>
        <mxCell id="MiHCtyASBFwHcQ-_76FD-4" value="Marketplace visible para todos" style="rounded=1;whiteSpace=wrap;html=1;fillColor=none;align=center;" parent="1" vertex="1">
          <mxGeometry x="636" y="-1206" width="194" height="298" as="geometry" />
        </mxCell>
        <mxCell id="MiHCtyASBFwHcQ-_76FD-35" style="edgeStyle=orthogonalEdgeStyle;rounded=0;orthogonalLoop=1;jettySize=auto;html=1;exitX=0.5;exitY=0;exitDx=0;exitDy=0;entryX=0.5;entryY=1;entryDx=0;entryDy=0;" parent="1" source="MiHCtyASBFwHcQ-_76FD-6" target="MiHCtyASBFwHcQ-_76FD-30" edge="1">
          <mxGeometry relative="1" as="geometry" />
        </mxCell>
        <mxCell id="MiHCtyASBFwHcQ-_76FD-6" value="Usuario registrado para poder publicar productos" style="rounded=1;whiteSpace=wrap;html=1;fillColor=none;align=center;" parent="1" vertex="1">
          <mxGeometry x="860" y="-1201" width="194" height="298" as="geometry" />
        </mxCell>
        <mxCell id="MiHCtyASBFwHcQ-_76FD-9" value="Users" style="swimlane;fontStyle=0;childLayout=stackLayout;horizontal=1;startSize=26;horizontalStack=0;resizeParent=1;resizeParentMax=0;resizeLast=0;collapsible=1;marginBottom=0;fillColor=none;" parent="1" vertex="1">
          <mxGeometry x="269" y="-1196" width="190" height="78" as="geometry">
            <mxRectangle x="-291" y="233" width="46" height="26" as="alternateBounds" />
          </mxGeometry>
        </mxCell>
        <mxCell id="MiHCtyASBFwHcQ-_76FD-10" value="Todos los productos" style="text;strokeColor=none;fillColor=none;align=left;verticalAlign=top;spacingLeft=4;spacingRight=4;overflow=hidden;rotatable=0;points=[[0,0.5],[1,0.5]];portConstraint=eastwest;" parent="MiHCtyASBFwHcQ-_76FD-9" vertex="1">
          <mxGeometry y="26" width="190" height="26" as="geometry" />
        </mxCell>
        <mxCell id="MiHCtyASBFwHcQ-_76FD-11" value="Detalle del Producto" style="text;strokeColor=none;fillColor=none;align=left;verticalAlign=top;spacingLeft=4;spacingRight=4;overflow=hidden;rotatable=0;points=[[0,0.5],[1,0.5]];portConstraint=eastwest;" parent="MiHCtyASBFwHcQ-_76FD-9" vertex="1">
          <mxGeometry y="52" width="190" height="26" as="geometry" />
        </mxCell>
        <mxCell id="MiHCtyASBFwHcQ-_76FD-30" value="Admin" style="swimlane;fontStyle=0;childLayout=stackLayout;horizontal=1;startSize=26;horizontalStack=0;resizeParent=1;resizeParentMax=0;resizeLast=0;collapsible=1;marginBottom=0;fillColor=none;" parent="1" vertex="1">
          <mxGeometry x="887" y="-1588" width="140" height="104" as="geometry" />
        </mxCell>
        <mxCell id="MiHCtyASBFwHcQ-_76FD-31" value="login" style="text;strokeColor=none;fillColor=none;align=left;verticalAlign=top;spacingLeft=4;spacingRight=4;overflow=hidden;rotatable=0;points=[[0,0.5],[1,0.5]];portConstraint=eastwest;" parent="MiHCtyASBFwHcQ-_76FD-30" vertex="1">
          <mxGeometry y="26" width="140" height="26" as="geometry" />
        </mxCell>
        <mxCell id="MiHCtyASBFwHcQ-_76FD-32" value="register" style="text;strokeColor=none;fillColor=none;align=left;verticalAlign=top;spacingLeft=4;spacingRight=4;overflow=hidden;rotatable=0;points=[[0,0.5],[1,0.5]];portConstraint=eastwest;" parent="MiHCtyASBFwHcQ-_76FD-30" vertex="1">
          <mxGeometry y="52" width="140" height="26" as="geometry" />
        </mxCell>
        <mxCell id="MiHCtyASBFwHcQ-_76FD-33" value="CRUD Productos" style="text;strokeColor=none;fillColor=none;align=left;verticalAlign=top;spacingLeft=4;spacingRight=4;overflow=hidden;rotatable=0;points=[[0,0.5],[1,0.5]];portConstraint=eastwest;" parent="MiHCtyASBFwHcQ-_76FD-30" vertex="1">
          <mxGeometry y="78" width="140" height="26" as="geometry" />
        </mxCell>
        <mxCell id="MiHCtyASBFwHcQ-_76FD-36" value="" style="rounded=1;whiteSpace=wrap;html=1;fillColor=none;" parent="1" vertex="1">
          <mxGeometry x="1418" y="-1244" width="690" height="381" as="geometry" />
        </mxCell>
        <mxCell id="MiHCtyASBFwHcQ-_76FD-37" value="Backend" style="text;html=1;strokeColor=none;fillColor=none;align=center;verticalAlign=middle;whiteSpace=wrap;rounded=0;" parent="1" vertex="1">
          <mxGeometry x="1390" y="-1292" width="282" height="48" as="geometry" />
        </mxCell>
        <mxCell id="MiHCtyASBFwHcQ-_76FD-46" style="edgeStyle=orthogonalEdgeStyle;rounded=0;orthogonalLoop=1;jettySize=auto;html=1;exitX=1;exitY=0.5;exitDx=0;exitDy=0;entryX=1;entryY=0.5;entryDx=0;entryDy=0;" parent="1" source="MiHCtyASBFwHcQ-_76FD-38" target="MiHCtyASBFwHcQ-_76FD-42" edge="1">
          <mxGeometry relative="1" as="geometry" />
        </mxCell>
        <mxCell id="MiHCtyASBFwHcQ-_76FD-38" value="Service Auth" style="rounded=1;whiteSpace=wrap;html=1;fillColor=none;" parent="1" vertex="1">
          <mxGeometry x="1478" y="-1183" width="120" height="60" as="geometry" />
        </mxCell>
        <mxCell id="MiHCtyASBFwHcQ-_76FD-51" style="edgeStyle=orthogonalEdgeStyle;rounded=0;orthogonalLoop=1;jettySize=auto;html=1;exitX=1;exitY=0.5;exitDx=0;exitDy=0;entryX=1;entryY=0.25;entryDx=0;entryDy=0;" parent="1" source="MiHCtyASBFwHcQ-_76FD-39" target="MiHCtyASBFwHcQ-_76FD-47" edge="1">
          <mxGeometry relative="1" as="geometry" />
        </mxCell>
        <mxCell id="MiHCtyASBFwHcQ-_76FD-39" value="Service Product" style="rounded=1;whiteSpace=wrap;html=1;fillColor=none;" parent="1" vertex="1">
          <mxGeometry x="1478" y="-1097" width="120" height="60" as="geometry" />
        </mxCell>
        <mxCell id="MiHCtyASBFwHcQ-_76FD-54" style="edgeStyle=orthogonalEdgeStyle;rounded=0;orthogonalLoop=1;jettySize=auto;html=1;exitX=1;exitY=0.5;exitDx=0;exitDy=0;entryX=1;entryY=0.25;entryDx=0;entryDy=0;" parent="1" source="MiHCtyASBFwHcQ-_76FD-40" target="MiHCtyASBFwHcQ-_76FD-52" edge="1">
          <mxGeometry relative="1" as="geometry" />
        </mxCell>
        <mxCell id="MiHCtyASBFwHcQ-_76FD-40" value="Service User" style="rounded=1;whiteSpace=wrap;html=1;fillColor=none;" parent="1" vertex="1">
          <mxGeometry x="1478" y="-1015" width="120" height="60" as="geometry" />
        </mxCell>
        <mxCell id="MiHCtyASBFwHcQ-_76FD-41" value="Service Auth" style="swimlane;fontStyle=0;childLayout=stackLayout;horizontal=1;startSize=26;horizontalStack=0;resizeParent=1;resizeParentMax=0;resizeLast=0;collapsible=1;marginBottom=0;fillColor=none;" parent="1" vertex="1">
          <mxGeometry x="1506" y="-1370" width="140" height="52" as="geometry" />
        </mxCell>
        <mxCell id="MiHCtyASBFwHcQ-_76FD-42" value="login JWT" style="text;strokeColor=none;fillColor=none;align=left;verticalAlign=top;spacingLeft=4;spacingRight=4;overflow=hidden;rotatable=0;points=[[0,0.5],[1,0.5]];portConstraint=eastwest;" parent="MiHCtyASBFwHcQ-_76FD-41" vertex="1">
          <mxGeometry y="26" width="140" height="26" as="geometry" />
        </mxCell>
        <mxCell id="MiHCtyASBFwHcQ-_76FD-47" value="Service Product" style="swimlane;fontStyle=0;childLayout=stackLayout;horizontal=1;startSize=26;horizontalStack=0;resizeParent=1;resizeParentMax=0;resizeLast=0;collapsible=1;marginBottom=0;fillColor=none;" parent="1" vertex="1">
          <mxGeometry x="1680" y="-1370" width="140" height="52" as="geometry" />
        </mxCell>
        <mxCell id="MiHCtyASBFwHcQ-_76FD-48" value="CRUD" style="text;strokeColor=none;fillColor=none;align=left;verticalAlign=top;spacingLeft=4;spacingRight=4;overflow=hidden;rotatable=0;points=[[0,0.5],[1,0.5]];portConstraint=eastwest;" parent="MiHCtyASBFwHcQ-_76FD-47" vertex="1">
          <mxGeometry y="26" width="140" height="26" as="geometry" />
        </mxCell>
        <mxCell id="MiHCtyASBFwHcQ-_76FD-52" value="Service User" style="swimlane;fontStyle=0;childLayout=stackLayout;horizontal=1;startSize=26;horizontalStack=0;resizeParent=1;resizeParentMax=0;resizeLast=0;collapsible=1;marginBottom=0;fillColor=none;" parent="1" vertex="1">
          <mxGeometry x="1879" y="-1370" width="140" height="52" as="geometry" />
        </mxCell>
        <mxCell id="MiHCtyASBFwHcQ-_76FD-53" value="CRUD" style="text;strokeColor=none;fillColor=none;align=left;verticalAlign=top;spacingLeft=4;spacingRight=4;overflow=hidden;rotatable=0;points=[[0,0.5],[1,0.5]];portConstraint=eastwest;" parent="MiHCtyASBFwHcQ-_76FD-52" vertex="1">
          <mxGeometry y="26" width="140" height="26" as="geometry" />
        </mxCell>
      </root>
    </mxGraphModel>
  </diagram>
</mxfile>
